<svg height="450" viewBox="1 6.9 192.04329 108.02435" width="800" xmlns="http://www.w3.org/2000/svg" xmlns:xlink="http://www.w3.org/1999/xlink">
<clipPath id="a">
<path d="m-420.67328-140.95926v20.33839h36.05696v7.65405h47.90426v-7.65405h47.90425v7.65405h48.41935v-7.65405h47.90425v7.65405h47.90425l10.84628-7.65405h61.267661v5.67414h36.23404v205.782244h27.6382977v-231.794774z"/>
</clipPath>
<clipPath id="b">
<path d="m11.499999 6.8302246v9.4783864h16.803788v3.567055h22.325032v-3.567055h22.325033v3.567055h22.565086v-3.567055h22.325032v3.567055h22.32503l5.05474-3.567055h28.55284v2.644346h16.88631v95.901613h12.8804v-108.0243454z"/>
</clipPath>
<clipPath id="c">
<path d="m11.499998 6.8302253v12.1227327h39.128821v-2.644347h22.325033v2.644347h22.565084v-2.644347h22.325044v2.644347h22.32502l5.05474-2.644347h28.55284v2.644347h29.76672v-12.1227327z"/>
</clipPath>
<g transform="translate(-10.499999 .069775)">
<g clip-path="url(#c)">
<g clip-path="none" transform="matrix(.12235247 0 0 .12235183 23.780624 -.656209)">
<path d="m0-51.898056h3595.3425v481.060516h-3595.3425z" fill="#b4b0c9" stroke-width="1.0001"/>
<path d="m1490.2695 0v160.26953h-42.0996v51.24024h-32.9492v122.58007h-38.4414v-168.80078h-95.1797v-49.22851h-54v78.86914l-50.3398 27.63086v158.75h-118.9805v-348.640628h-128.13868v65.310547h-100.66992l-27.46093 15.070311v36.16992h-126.29883l-23.80078 13.0586v122.57031h-53.08985v-188.878907h-98.83984v33.148437h-156.50977v79.88086l-28.37109 15.57031v78.45899h-47.18945v-193.61914l-64.07032-14.070316v-52.25h-172.060543v221.041016h-15.410156v217.83008h1848.240259v-345.30078l-52.1699-28.64063v-80.369139h-140.9493v-27.650391z" fill="#f2f2fd" opacity=".71"/>
<path d="m1590.4805 42.869141v439.091799h287.9101v-315.55078h-110.6699l-25.9316 28.50976v87.43946h-27.67v-239.490239zm-1186.57034 25.351562v42.599607l-24.91016 27.39063v343.75h478.8418l-44.25196-77.01172h-77.50976v-277.89844h-149.4707l-12.91993 14.19922v85.18945 95.33985h-42.44922v-253.558597zm-216.83008 121.708987-24.91992 27.38086v38.54883h-138.400394l-3.396485 226.10156h330.027339v-258.56055h-16.61132v-33.4707zm705.85937 36.50976v215.02149h-35.05859v40.5h147.62894v-125.70117h-36.90042v-129.82032zm385.41995 12.20117v81.72852h-145.25v161.5918h420.1914v-243.32032z" fill="#efeff9"/>
<path d="m1184.2598 52v17.390625h-87.5996v69.558595h-82.0196l-20.49998 23.71094v284.55078h-69.90039v-57.70117l-43.80078-37.15039v-135.94922h-152.83984v112.24023h-55.91016v94.84961l-62.04687 58.46094h792.69722v-257.65039l-104.3789 45.84961v199.17968h-27.9609v-306.67968h-35.4199v-90.109379h-35.4102v-20.550781zm398.8711 56.91016v51.35852h-143.5215 393.291v250.58093l-63.3809-53.75v-208.66992h-80.1386l-46.6016-39.51953zm-1140.71098 7.91015v278.21875h-27.94922v-191.27929h-141.66015v66.40039h-65.24024v211.80078h354.15039v-295.5918zm1435.21098 85.35938v279.78125l1717.7115.003v-141.9227h-1675.3402v-137.86155zm-1877.6309 184.96093v94.82032h179.60938v-31.5918h-95.048833v-42.67969l-16.78125-20.54883z" fill="#e4e3f2"/>
<g fill="#dbd9e6">
<path d="m488.26337 85.85h223.81s-.46-39.87-37.39-39.87c-27.31 0-37.52 17.87-37.52 17.87s-7.49-44.67-44.83-44.67-57.33 50.72-57.33 50.72-19.44-20.72-42.5-20.72-4.25 36.67-4.25 36.67z"/>
<path d="m1437.0395 93.910206h-223.81s.46-39.869991 37.39-39.869991c27.31 0 37.52 17.87 37.52 17.87s7.49-44.67 44.83-44.67c37.33 0 57.33 50.72 57.33 50.72s19.44-20.72 42.5-20.72 4.25 36.669991 4.25 36.669991z"/>
<path d="m221.45 152.09h-20.25c-3.45 0-6.25 2.8-6.25 6.25v20.26c0 3.45 2.8 6.25 6.25 6.25h20.25c3.45 0 6.25-2.8 6.25-6.25v-20.26c0-3.45-2.8-6.25-6.25-6.25zm1.36 24.42-3.2-3.21-2.74.72-.71 2.73 3.2 3.2c-1.74.52-3.71.09-5.08-1.29-1.37-1.36-1.8-3.3-1.3-5.03l-6.82-6.81c-1.73.49-3.67.06-5.03-1.3-1.38-1.38-1.81-3.34-1.29-5.09l3.2 3.2 2.74-.71.71-2.73-3.2-3.2c1.74-.52 3.71-.09 5.08 1.28s1.8 3.31 1.3 5.04l6.82 6.81c1.73-.5 3.67-.06 5.03 1.3 1.38 1.38 1.81 3.34 1.29 5.09z"/>
<path d="m115.89 166.98c-.02-.15-.05-.28-.11-.42-.04-.09-.08-.17-.12-.24-.05-.08-.11-.15-.17-.21-.03-.03-.06-.07-.09-.09-.03-.03-.07-.06-.1-.09s-.09-.07-.14-.09c-.11-.07-.23-.12-.35-.15-.04-.01-.08-.02-.13-.03-.16-.03-.32-.03-.49 0h-.03c-.12.02-.23.02-.35.01-.28-.02-.54-.12-.76-.28-.04-.02-.07-.05-.11-.09-.04-.03-.08-.07-.11-.11-.05-.06-.1-.12-.14-.19-.04-.06-.07-.13-.11-.19-.02-.04-.03-.07-.05-.11-.01-.03-.02-.06-.04-.09-.1-.28-.22-.56-.35-.84 0 0 0-.01 0-.02-.02-.05-.04-.1-.06-.15-.07-.21-.09-.42-.07-.63.02-.17.07-.34.15-.5.07-.16.18-.3.31-.42.05-.04.09-.08.14-.12l.03-.02s.09-.07.13-.11c.12-.11.22-.24.29-.37.04-.07.07-.14.09-.21s.05-.15.06-.22c.09-.42 0-.88-.29-1.25-.31-.39-.65-.76-1-1.13-.36-.36-.74-.7-1.13-1.01-.37-.3-.85-.39-1.28-.28-.06.02-.11.03-.16.05-.21.07-.42.2-.58.38-.04.04-.08.09-.12.14l-.03.03c-.18.24-.42.42-.7.52-.1.04-.2.06-.31.08-.01 0-.03 0-.04 0-.02 0-.05 0-.08 0-.11 0-.21 0-.31-.01-.08 0-.16-.03-.23-.06-.05-.02-.1-.03-.15-.06-.07-.03-.13-.06-.19-.09-.09-.05-.19-.09-.28-.12-.16-.07-.32-.13-.48-.19 0 0 0 0-.02 0-.62-.23-.99-.86-.95-1.5v-.02s.02-.12.02-.12c.11-.8-.4-1.53-1.15-1.7-.05-.02-.11-.02-.17-.03-.5-.05-1-.08-1.51-.08s-1.02.03-1.51.08c-.81.09-1.4.83-1.32 1.64 0 .04 0 .07.01.11.01.07.02.15.02.22 0 .58-.33 1.12-.86 1.37-.04.02-.08.03-.12.05-.16.06-.31.12-.46.18-.13.05-.25.11-.37.16-.03.01-.06.03-.09.04-.65.3-1.41.09-1.84-.48-.48-.65-1.37-.81-2.04-.39-.05.03-.09.06-.14.09-.38.3-.76.64-1.11 1-.36.35-.69.73-1 1.11-.32.41-.41.93-.26 1.38.04.14.1.28.18.4.07.1.14.19.22.27.05.04.09.08.14.12.57.43.79 1.2.48 1.85-.14.3-.27.61-.38.93-.07.19-.17.35-.3.5-.08.08-.16.15-.25.22-.09.06-.2.12-.3.16-.07.03-.14.05-.22.07-.19.04-.37.05-.57.02-.07-.01-.15-.02-.22-.02-.09 0-.19 0-.28.02-.65.12-1.17.64-1.25 1.32-.05.49-.09.99-.09 1.49s.03 1 .09 1.49c.08.69.6 1.21 1.25 1.32.16.03.33.03.5 0 .07-.01.15-.02.22-.02.31 0 .61.09.86.26.06.05.12.09.18.14.16.15.3.35.38.57.12.31.24.62.38.93.28.59.12 1.28-.34 1.72-.05.04-.09.08-.14.12s-.1.08-.14.12c-.08.08-.16.17-.22.27-.08.12-.14.26-.18.4-.01.05-.02.09-.03.14 0 .05-.02.09-.02.14s-.01.1-.01.15v.05c0 .07 0 .14.02.21.01.07.03.14.05.21v.02.02c0 .02.02.05.02.07.02.05.05.1.07.15 0 0 .01.02.02.02 0 0 .01.02.02.03.03.06.07.12.11.17.3.38.64.76 1 1.11.35.35.72.68 1.11.99.32.25.71.36 1.08.32.13-.01.26-.04.38-.09.28-.09.52-.27.71-.52l.12-.14c.17-.18.37-.31.59-.39l.52-.09c.21 0 .42.05.62.14.3.14.61.27.92.38.3.11.55.31.72.56.06.09.12.19.16.3.09.24.13.51.09.79-.12.81.41 1.55 1.18 1.71h.01c.05.01.09.02.14.02.49.06.99.09 1.49.09s1-.03 1.48-.08c.37-.05.69-.21.92-.46.09-.1.18-.21.24-.33.03-.06.06-.12.09-.19.09-.24.13-.5.09-.77-.01-.07-.02-.15-.02-.22 0-.63.38-1.2.98-1.42.31-.11.62-.24.92-.38.42-.2.9-.18 1.3.02.1.05.21.12.3.19.05.04.09.08.13.13.05.04.08.09.12.14.48.65 1.37.81 2.03.39.05-.03.09-.06.14-.1.38-.31.76-.64 1.11-1s.69-.73 1-1.11c.32-.41.4-.93.26-1.39-.02-.07-.05-.13-.07-.2-.03-.07-.07-.13-.11-.19-.07-.1-.14-.19-.22-.27-.05-.04-.09-.08-.14-.12s-.09-.08-.14-.12c-.46-.44-.62-1.13-.34-1.72.14-.3.27-.61.38-.93.24-.67.94-1.07 1.64-.96.37.05.73-.03 1.02-.21.08-.05.15-.1.21-.16.03-.03.07-.06.1-.09s.05-.06.08-.09c.18-.21.3-.49.33-.78.06-.49.09-.99.09-1.49s-.03-1-.09-1.49zm-6.48 2.25v.07c-.02.12-.03.24-.05.36-.02.13-.04.25-.07.38v.02c-.05.25-.12.49-.2.73-.05.14-.1.28-.15.42-.05.12-.1.25-.16.37-.04.09-.09.18-.13.27-.12.24-.25.47-.41.7-.04.06-.08.12-.12.18-.01.02-.03.05-.06.08-.05.07-.09.13-.15.2-.06.08-.12.16-.19.24-.13.16-.27.32-.42.46-.06.07-.13.13-.19.19-.07.06-.14.12-.21.18-.1.08-.2.16-.3.25-.25.19-.51.37-.77.53-.08.05-.17.1-.25.14-.1.05-.2.1-.3.15-.09.05-.19.09-.29.13-.16.07-.32.13-.48.18-.09.03-.18.07-.28.09-.2.06-.4.11-.61.16-.1.02-.2.05-.3.06-.1.02-.21.04-.31.05-.51.06-1.04.07-1.55.03-.1 0-.21-.02-.31-.03-.1 0-.21-.02-.31-.05-.1-.02-.21-.03-.31-.06-.35-.08-.7-.18-1.04-.3-.09-.03-.18-.07-.27-.11 0 0-.02 0-.03-.01-.1-.04-.2-.09-.29-.13 0 0-.02 0-.03-.02-.1-.05-.21-.1-.3-.16-.21-.11-.41-.23-.61-.37 0 0-.01 0-.02 0-.09-.06-.18-.13-.28-.2-.08-.06-.16-.12-.24-.19-.12-.09-.22-.19-.33-.29-.11-.09-.21-.2-.31-.3-.09-.09-.17-.18-.25-.27-.29-.33-.55-.68-.77-1.04-.06-.1-.12-.2-.18-.31-.07-.12-.13-.23-.18-.36-.03-.07-.07-.14-.09-.21-.02-.05-.04-.09-.06-.14-.02-.06-.05-.12-.07-.18-.03-.08-.06-.16-.08-.24-.01-.03-.02-.06-.03-.09-.03-.1-.07-.2-.09-.3-.05-.15-.08-.3-.12-.45-.02-.09-.04-.19-.05-.28-.03-.17-.05-.35-.07-.52-.02-.25-.04-.51-.04-.76 0-.26.01-.51.04-.76 0-.02 0-.05 0-.07.01-.12.03-.24.05-.36.02-.13.04-.25.07-.38 0 0 0-.01 0-.02.05-.25.12-.49.2-.73.03-.1.07-.2.11-.3.03-.07.06-.15.09-.23.02-.05.04-.1.07-.15.03-.07.06-.13.09-.2.09-.19.18-.37.3-.55.05-.09.1-.17.16-.25 0 0 0-.02.02-.02.06-.08.11-.16.17-.24.07-.11.15-.21.23-.31s.16-.2.25-.3.17-.19.26-.29c.46-.46.97-.87 1.53-1.2.09-.05.18-.1.27-.15s.19-.09.28-.14.18-.09.27-.12c.17-.08.35-.14.52-.2.08-.03.16-.06.25-.08l.3-.09c.1-.03.2-.05.3-.07s.2-.05.3-.06c.1-.02.21-.04.31-.05s.21-.02.31-.03c.41-.03.83-.03 1.24 0 .1 0 .21.02.31.03.1 0 .21.02.31.05.1.01.21.03.31.06.25.05.51.12.76.21.07.02.14.04.21.07.35.12.68.28 1.01.46.11.06.21.12.31.18s.2.12.29.18c.09.07.19.13.28.2.01 0 .03.02.04.03l.27.21c.09.07.17.14.25.22.19.17.36.35.52.53.07.07.13.14.19.22.11.13.21.25.3.39.05.07.09.13.14.2.16.23.3.47.42.72.05.09.1.19.15.29 0 .02.02.04.02.05.05.1.09.21.14.32 0 .02.01.03.02.05.04.09.07.18.1.28.02.05.04.11.05.16.08.24.14.48.2.72.01.07.03.14.04.22.03.19.06.38.08.57.02.25.04.5.04.76s-.01.5-.04.75z"/>
</g>
<rect fill="none" height="38.75" rx="6.25" stroke="#dbd9e6" stroke-miterlimit="10" width="38.75" x="82.690002" y="149.10001"/>
<path d="m865.5232 148.54204h-223.81192s.46-39.87 37.39-39.87c27.31004 0 37.52016 17.87 37.52016 17.87s7.49008-44.669997 44.83052-44.669997 57.33068 50.719997 57.33068 50.719997 19.44024-20.72 42.50052-20.72c23.06024 0 4.25004 36.67 4.25004 36.67z" fill="#dbd9e6"/>
</g>
<g clip-path="none" transform="matrix(.12235247 0 0 .12235183 -13.352338 -39.605769)">
<path d="m412.25 60.619999h26.25c3.4625 0 6.25 2.7875 6.25 6.25v26.25c0 3.4625-2.7875 6.25-6.25 6.25h-26.25c-3.4625 0-6.25-2.7875-6.25-6.25v-26.25c0-3.4625 2.7875-6.25 6.25-6.25z" fill="none" stroke="#dbd9e6" stroke-miterlimit="10" transform="matrix(1.0142253 0 0 1.0142306 294.50347 -.608056)"/>
<path d="m1325.52 323.89001h62.18v58.76h-62.18z" fill="#b4b0c9"/>
<path d="m1264.26 378.78h184.68c4.04 0 7.32 3.28 7.32 7.32v7.32h-199.33v-7.32c0-4.04 3.28-7.32 7.32-7.32z" fill="#b4b0c9"/>
<path d="m-1249.72-397.31h56.41v5.73h-56.41z" fill="#e53417" transform="scale(-1)"/>
<path d="m-1207.1094-397.32031v-84.64063h-6v84.64063z" fill="#f5f4fa" transform="scale(-1)"/>
<path d="m-1229.9199-397.32031v-84.64063h-6v84.64063z" fill="#f5f4fa" transform="scale(-1)"/>
<g stroke="#3c3752">
<path d="m115.46615 63.692996 6.74254 11.623536" fill="#fff" stroke-linecap="square" stroke-width=".724958" transform="matrix(7.0774458 0 0 7.0774826 225.3246 -51.401056)"/>
<path d="m120.63187 63.692996 8.71078 11.667416" fill="#fff" stroke-linecap="square" stroke-width=".724958" transform="matrix(7.0774458 0 0 7.0774826 225.3246 -51.401056)"/>
<g fill="#3c3752" stroke-miterlimit="10">
<path d="m1042.53 397.32001h36.56v4.13h-36.56z"/>
<path d="m1047.83 406.64999h38.11v4.13h-38.11z"/>
<path d="m1053.13 415.98999h39.66v4.13h-39.66z"/>
<path d="m1058.4399 425.32999h41.2v4.13h-41.2z"/>
<path d="m1063.74 434.66h42.75v4.13h-42.75z"/>
<path d="m1069.04 444h44.3v4.13h-44.3z"/>
<path d="m1074.34 453.34h45.85v4.13h-45.85z"/>
<path d="m1079.65 462.67001h47.4v4.13h-47.4z"/>
<path d="m1084.95 472.01001h48.95v4.13h-48.95z"/>
<path d="m1090.25 481.33984v.6211h50.4902v-.6211z"/>
</g>
</g>
<g fill="#e53417">
<path d="m941.57001 391.59h251.73999v17.06h-251.73999z"/>
<path d="m1431.3809 407.30078v74.66016h12.5488v-74.66016z"/>
<path d="m354.24023 276.05078v205.91016h12.54883v-205.91016z"/>
<path d="m1255.2891 407.30078v74.66016h12.5507v-74.66016z"/>
</g>
<g fill="#3c3752">
<path d="m563.63086 269.01953v212.94141h6.2793v-212.94141z"/>
<path d="m608.88086 269.01953v212.94141h6.2793v-212.94141z"/>
<path d="m563.63 392.37h51.52v6.68h-51.52z"/>
<path d="m563.63 413.75h51.52v7.1h-51.52z"/>
<path d="m563.63 435.13h51.52v7.51h-51.52z"/>
<path d="m563.63 456.5h51.52v7.93h-51.52z"/>
<path d="m563.63086 477.88086v4.08008h51.51953v-4.08008z"/>
</g>
<path d="m856.40002 377.76001h68.42v5.31h-68.42z" fill="#e53417"/>
<path d="m900.81 383.07001h7.28v8.56h-7.28z" fill="#f5f4fa"/>
<path d="m873.14001 383.07001h7.28v8.56h-7.28z" fill="#f5f4fa"/>
<path d="m873.14001 391.63h68.42v5.31h-68.42z" fill="#e53417"/>
<path d="m917.55078 396.93945v85.02149h7.2793v-85.02149z" fill="#f5f4fa"/>
<path d="m889.88086 396.93945v85.02149h7.2793v-85.02149z" fill="#f5f4fa"/>
<path d="m1475.48 391.57999h56.41v5.73h-56.41z" fill="#e53417"/>
<path d="m1512.09 397.31h6v9.24h-6z" fill="#f5f4fa"/>
<path d="m1489.28 397.31h6v9.24h-6z" fill="#f5f4fa"/>
<path d="m1489.28 406.54999h56.41v5.73h-56.41z" fill="#e53417"/>
<path d="m1525.89 412.28h6v9.24h-6z" fill="#f5f4fa"/>
<path d="m1503.08 412.28h6v9.24h-6z" fill="#f5f4fa"/>
<path d="m1503.08 421.51999h56.41v5.73h-56.41z" fill="#e53417"/>
<path d="m1539.6899 427.25h6v9.24h-6z" fill="#f5f4fa"/>
<path d="m1516.88 427.25h6v9.24h-6z" fill="#f5f4fa"/>
<path d="m1516.88 436.5h56.41v5.73h-56.41z" fill="#e53417"/>
<path d="m1553.49 442.23001h6v8.49h-6z" fill="#f5f4fa"/>
<path d="m1530.6801 442.23001h6v8.49h-6z" fill="#f5f4fa"/>
<path d="m1530.6801 450.72h65.42v5.73h-65.42z" fill="#e53417"/>
<path d="m1576.3 456.45001h6v11.32h-6z" fill="#f5f4fa"/>
<path d="m1553.49 456.45001h6v11.32h-6z" fill="#f5f4fa"/>
<path d="m1553.49 467.76999h56.41v5.73h-56.41z" fill="#e53417"/>
<path d="m1590.0996 473.5v8.46094h6v-8.46094z" fill="#f5f4fa"/>
<path d="m1567.2891 473.5v8.46094h6v-8.46094z" fill="#f5f4fa"/>
<g stroke="#3c3752">
<path d="m166.11438 63.76929-6.77216 11.591121" fill="#fff" stroke-linecap="square" stroke-width=".724958" transform="matrix(7.0774458 0 0 7.0774826 225.3246 -51.401056)"/>
<path d="m160.94867 63.76929-8.37626 11.661343" fill="#fff" stroke-linecap="square" stroke-width=".724958" transform="matrix(7.0774458 0 0 7.0774826 225.3246 -51.401056)"/>
<g fill="#3c3752" stroke-miterlimit="10">
<path d="m1364.4301 397.85999h36.56v4.13h-36.56z"/>
<path d="m1356.04 409.66h38.11v4.13h-38.11z"/>
<path d="m1347.64 421.45999h39.66v4.13h-39.66z"/>
<path d="m1339.25 433.25h41.2v4.13h-41.2z"/>
<path d="m1330.85 445.04999h42.75v4.13h-42.75z"/>
<path d="m1322.46 456.85001h44.3v4.13h-44.3z"/>
<path d="m1314.0601 468.64999h45.85v4.13h-45.85z"/>
<path d="m1305.6602 480.44922v1.51172h47.4003v-1.51172z"/>
</g>
</g>
<path d="m1223.74 391.57999h251.74v16.46h-251.74z" fill="#e53417"/>
</g>
</g>
<path clip-path="url(#b)" d="m190.80721 6.830225h12.736077v12.122835h-12.736077z" fill="#6f6798" stroke-width=".286098" transform="translate(-179.30721)"/>
<path d="m11.499995 18.95306h12.736077v95.901512h-12.736077z" fill="#e4e3f2" stroke-width=".240054"/>
<g clip-path="url(#a)" transform="matrix(.46603445 0 0 .46603445 28.241033 72.522094)">
<g fill="#6f6798" transform="matrix(0 .14129392 -.14129318 0 -49.234954 -147.73115)">
<path d="m989.8575-219.76124c1.39-13.71-6.51-21.14-23-21.14-18.12 0-27.42 8.6-27.42 24.63h-30.9c0-29.97 15.8-52.51 57.39-52.51s58.32 21.84 56.46 50.65c-3.48 50.18-82.94 39.27-82.94 71.56v1.86h82.94v26.49c-70.16-.23-46.93 0-114.54 0l.23-26.95c.46-58.78 78.99-46.24 81.78-74.58z"/>
<path d="m1041.6675-192.58124c0-44.38 12.31-76.21 62.73-76.21s62.96 31.83 62.96 76.44-11.85 75.97-62.96 75.97-62.73-31.83-62.73-76.21zm62.73 48.79c26.48 0 29.97-18.82 29.97-48.56s-3.48-49.02-29.97-49.02-29.51 18.82-29.51 48.79 3.95 48.79 29.51 48.79z"/>
<path d="m1272.0375-219.77124c1.39-13.71-6.51-21.14-23-21.14-18.12 0-27.42 8.6-27.42 24.63h-30.9c0-29.97 15.8-52.51 57.39-52.51s58.32 21.84 56.46 50.65c-3.48 50.18-82.94 39.27-82.94 71.56v1.86h82.94v26.49c-70.17-.23-46.93 0-114.54 0l.23-26.95c.47-58.78 78.99-46.24 81.78-74.58z"/>
<path d="m1335.703-263.62657v78.73868l53.5261.28892c11.2681 0 23.1746 6.67788 23.1746 21.23773 0 12.69929-8.0774 23.15615-23.107 23.15615-14.6467 0-25.5444-7.66351-25.5444-25.48526h-32.2748c0 34.34414 19.6784 52.62388 57.8192 52.62388 36.6972 0 55.8033-19.75489 55.8033-50.29392 0-37.96631-31.3562-48.1372-48.6477-48.1372h-28.2137v-24.21903h69.2631v-27.90883z" stroke-width="2.73318"/>
</g>
<g fill="#6f6798" transform="matrix(0 .14129392 -.14129318 0 -55.57136 -130.86151)">
<path d="m292.41312-309.46972h54.6c58.08 0 62.96 30.44 62.96 50.88s-3.02 50.18-61.1 50.18h-23.47v47.63h-32.99zm55.99 74.81c24.4 0 27.88-13.24 27.88-23.47s-3.48-23.93-27.88-23.93h-23v47.4z"/>
<path d="m201.80312-282.05972h-38.57v-27.42h110.13v27.42h-39.03v121.28h-32.53z"/>
<path d="m461.32312-309.46972h44.84l52.51 148.69h-34.85l-8.13-26.49h-63.89l-8.6 26.49h-34.62zm46.23 98.28-23.7-73.18-24.16 73.18z"/>
<path d="m570.23312-222.00972c-8.13-39.84-2.72-77.22 52.14-88.42 48.26-9.85 71.45 13.16 77.59 43.21l-33.01 6.74c-5.67-17.34-16.1-27.78-39.1-23.08-29.59 6.04-30.51 28.28-25.07 54.91 5.48 26.86 14.99 46.74 44.59 40.69 23.22-4.74 28.32-18.11 26.88-36.79l33.23-6.78c6.51 31.87-5.68 60.44-54.63 70.43-55.54 11.34-74.49-21.08-82.62-60.91z"/>
</g>
<g transform="matrix(.14129391 0 0 .14129318 -140.71267 -66.51538)">
<g fill-rule="evenodd">
<path d="m822.98 64.14 9.04-1.84-3.74-10.52c2.74.97 5.28 1.19 6.34.67 2.67-1.3.83-11.67-2.19-15.29-3.01-3.62-14.59-3.1-13.51 5.07.37 2.84 2.06 5.09 4.21 6.78l-.15 15.14z" fill="#aa8b6c"/>
<path d="m814.43 40.35c-.95.25-2.04.91-2.35 1.97-.4 1.38.82 2.59 1.96 2.96-1.52 2.02 2.3 3.58 3.7 3.39-.05 1.05 1.18 1.15 1.88 1.29-.3.58-.27 1.39.32 1.78.64.44 1.59.28 2.1-.26.13-.14.13-.28.22-.42.07-.12.22-.15.33-.21.3-.18.44-.57.52-.91.17-.69.13-1.47.52-2.08-.68-.14-1.49-.24-2.04-.79-.94-.95-.46-2.63.61-3.15.97-.47 2.23-.14 3.06.57.09-.64.29-1.28.62-1.82.2-.33.57-.83-.06-.86-1.39-.08-2.79.07-4.19.04 1.38-.28 2.78-.42 4.13-.83.42-.13.84-.28.96-.79.14-.62.18-1.34.08-1.98.5.07 1 .22 1.5.11.19-.04.36-.13.55-.17.22-.05.37.01.56.13.74.46 1.59.68 2.44.7.48.01 1.02.02 1.48-.11.07-.02.12-.07.16-.1.09-.04.27-.03.4-.05.33-.05.67-.18.89-.46.48-.65.12-1.51-.62-1.68.49-.55.93-1.17 1.27-1.85.16-.33.31-.67.41-1.02.05-.2.13-.48.03-.68-.29-.62-1.48.04-1.81.29-.06-.17-.11-.25-.11-.43 0-.15-.02-.29-.1-.42-.13-.21-.36-.3-.58-.35-.28-.07-.56-.06-.84-.01-.14.02-.44.18-.55.03-.08-.12-.05-.38-.06-.52 0-.26-.02-.5-.05-.76-.04-.34-.08-.67-.13-1-.03-.24-.04-.51-.14-.73-.27-.61-.94-.5-1.4-.28-.32.14-.59.35-.84.61-.17.18-.33.38-.51.56-.11.12-.19.27-.36.21-.39-.16-.68-.64-1-.92-.36-.31-.81-.5-1.26-.57-.97-.16-1.94.28-2.6 1.01-.15.16-.29.34-.4.54-.1.17-.17.3-.37.29-.18 0-.36-.09-.53-.16-.2-.08-.41-.15-.61-.21-.83-.25-1.69-.28-2.49 0-.79.28-1.41.84-1.7 1.68-.3.87-.27 1.86-.09 2.78-.45-.09-.87-.29-1.32-.35-.46-.05-.93-.02-1.37.1-.66.19-1.34.57-1.72 1.2-.47.78-.27 1.75.09 2.56.18.4.4.79.63 1.17.22.36.46.74.81.97" fill="#181f44"/>
<path d="m887.94 144.8c.11 2.46-3.83 3.91-4.68.97-1.35-4.68-5.42-21.03-6.27-28.81-.28-2.45-.51-4.83-.71-7.03l.91-16.34c2.83-2.15 8.13-.83 8.64 1.74 1.62 7.98 2.01 47.02 2.12 49.47z" fill="#aa8b6c"/>
<path d="m881.93 143.99c.1-.41.51-.67.92-.57 1.08.25 1.9.32 2.45.2.69-.14 1.53-.58 2.53-1.32l.32-1.67s0 0 0-.01c.05-.21.25-.34.46-.29l10.77 2.39c.81-.04 1.83-.11 3.04-.21 1.22-.1 1.74.82 1.56 2.76-13.37 2.73-20.45 4.17-21.24 4.34-.49-1.26-.81-2.22-.95-2.9-.11-.56-.08-1.44.12-2.65 0-.02 0-.04.01-.05z" fill="#e2e2e2"/>
<path d="m881.22 92.02c-9.16.15-33.88.21-38.54.65l-22.36 4.56c3.07 13.11 9.19 19.28 20.48 16.97 7.83-1.6 33.33-9.87 34.05-9.67.48.14 2.1 10.77 4.85 31.89l10.22-2.09c-.45-2.2-.46-26.51-2.5-36.51-.56-2.76-2.29-5.88-6.21-5.81z" fill="#e53417"/>
<path d="m847.18 75.74 10.05-8.47c5.16-1.2 7.54-2.13 7.13-2.8-.61-1-2.01-.24-2.54-.85-.52-.61.61-2.62 1.76-4.49 1.15-1.86 0-1.74-.67-1.5-2.21 1.37-4.48 3.32-6.8 5.86l-13.63 6.75 4.7 5.49z" fill="#92775d"/>
<path d="m839.18 77.19c5.63.39 12.22-3.08 16.99-7.44l-2.37-5.92c-6.82 3.94-13.08 4.67-17.75 4.53-3.35 3.06-1.3 8.53 3.13 8.83z" fill="#e53417"/>
</g>
<path d="m851.65 61.7.36-2.06 36.52 5.99-.36 2.06z" fill="#527a98"/>
<path d="m874.62 43.55-15.3 17.64 29.15 4.43 15.29-17.64z" fill="#527a98"/>
<path d="m875.97 45.7-12.32 14.2 23.47 3.57 12.31-14.2z" fill="#2128c5"/>
<g fill-rule="evenodd">
<path d="m865.62 77.57c2.11-2.3 4.18-3.96 6.19-4.99 3.85-1.97 5.32-3.18 6.79-6.12.79-1.58 1.14-4.49-.06-5.18-.81-.46-4.19 3.31-5.75 3.98s-.85-3.51-1.63-2.93c-1.12.25-1.76 1.99-1.94 5.22l-5.1 4.33z" fill="#92775d"/>
<path d="m832.03 53.66-10.45 2.13c-1.15.23-5.89 16.75-3.91 26.45 1.8 8.86-5.29 16.16 1.8 29.13 6.53-2.73 28.16-.05 30.12-8.11.95-3.92.65-7.93-.41-12 6.9-1.57 14.84-5.57 23.61-12.7-.3-2.54-2.46-6.46-6.5-11.75-10.61 6.41-18.47 9.5-23.58 9.28-4.03-7.58-8.6-15.15-10.68-22.44z" fill="#ee7864"/>
</g>
</g>
</g>
</g>
</svg>
